<svg width="23" height="23" viewBox="0 0 23 23" fill="none" xmlns="http://www.w3.org/2000/svg">
<mask id="mask0_2481_993" style="mask-type:alpha" maskUnits="userSpaceOnUse" x="0" y="0" width="23" height="23">
<rect x="0.720215" y="0.719971" width="22.08" height="22.08" fill="#4F4F4F"/>
</mask>
<g mask="url(#mask0_2481_993)">
</g>
<path d="M14.3453 12.0175C14.9276 11.3922 15.2557 10.572 15.2653 9.71754C15.2653 8.79522 14.8989 7.91068 14.2467 7.2585C13.5945 6.60633 12.71 6.23994 11.7877 6.23994C10.8653 6.23994 9.9808 6.60633 9.32862 7.2585C8.67645 7.91068 8.31006 8.79522 8.31006 9.71754C8.31966 10.572 8.64772 11.3922 9.23006 12.0175C8.41922 12.4213 7.72146 13.0203 7.19954 13.7606C6.67762 14.5009 6.34791 15.3594 6.24006 16.2587C6.21322 16.5027 6.28441 16.7474 6.43796 16.9389C6.59152 17.1304 6.81486 17.2531 7.05886 17.2799C7.30286 17.3068 7.54752 17.2356 7.73904 17.082C7.93055 16.9285 8.05322 16.7051 8.08006 16.4611C8.18985 15.5698 8.6218 14.7493 9.29454 14.1544C9.96728 13.5594 10.8344 13.231 11.7325 13.231C12.6305 13.231 13.4976 13.5594 14.1704 14.1544C14.8431 14.7493 15.2751 15.5698 15.3849 16.4611C15.4104 16.697 15.5262 16.9139 15.7079 17.0665C15.8896 17.2191 16.1233 17.2956 16.3601 17.2799H16.4613C16.7024 17.2522 16.9228 17.1302 17.0745 16.9407C17.2261 16.7511 17.2967 16.5093 17.2709 16.2679C17.171 15.3733 16.8517 14.5172 16.3413 13.7757C15.8309 13.0342 15.1453 12.4302 14.3453 12.0175ZM11.7601 11.3551C11.4362 11.3551 11.1196 11.2591 10.8503 11.0792C10.581 10.8992 10.3711 10.6435 10.2471 10.3442C10.1232 10.045 10.0907 9.71572 10.1539 9.39806C10.2171 9.08039 10.3731 8.7886 10.6021 8.55958C10.8311 8.33056 11.1229 8.17459 11.4406 8.1114C11.7582 8.04822 12.0875 8.08065 12.3867 8.20459C12.686 8.32854 12.9417 8.53843 13.1217 8.80773C13.3016 9.07704 13.3977 9.39365 13.3977 9.71754C13.3977 10.1519 13.2251 10.5684 12.918 10.8755C12.6109 11.1826 12.1944 11.3551 11.7601 11.3551ZM18.2001 2.55994H5.32006C4.58806 2.55994 3.88604 2.85072 3.36844 3.36832C2.85084 3.88592 2.56006 4.58794 2.56006 5.31994V18.1999C2.56006 18.9319 2.85084 19.634 3.36844 20.1516C3.88604 20.6692 4.58806 20.9599 5.32006 20.9599H18.2001C18.9321 20.9599 19.6341 20.6692 20.1517 20.1516C20.6693 19.634 20.9601 18.9319 20.9601 18.1999V5.31994C20.9601 4.58794 20.6693 3.88592 20.1517 3.36832C19.6341 2.85072 18.9321 2.55994 18.2001 2.55994ZM19.1201 18.1999C19.1201 18.4439 19.0231 18.6779 18.8506 18.8505C18.6781 19.023 18.4441 19.1199 18.2001 19.1199H5.32006C5.07606 19.1199 4.84205 19.023 4.66952 18.8505C4.49699 18.6779 4.40006 18.4439 4.40006 18.1999V5.31994C4.40006 5.07594 4.49699 4.84193 4.66952 4.6694C4.84205 4.49686 5.07606 4.39994 5.32006 4.39994H18.2001C18.4441 4.39994 18.6781 4.49686 18.8506 4.6694C19.0231 4.84193 19.1201 5.07594 19.1201 5.31994V18.1999Z" fill="#222831"/>
</svg>
