<svg width="16" height="22" viewBox="0 0 16 22" fill="none" xmlns="http://www.w3.org/2000/svg">
<path d="M13.0899 1.81995C12.1702 1.06353 11.0933 0.521975 9.9376 0.23479C8.78194 -0.0523948 7.57674 -0.0779648 6.40994 0.159946C4.85632 0.473768 3.43093 1.24202 2.31462 2.36723C1.19832 3.49243 0.441414 4.92388 0.139942 6.47995C-0.0802115 7.64667 -0.0402063 8.8476 0.257104 9.99708C0.554414 11.1466 1.1017 12.2163 1.85994 13.1299C2.56363 13.924 2.96698 14.9395 2.99994 15.9999V18.9999C2.99994 19.7956 3.31601 20.5587 3.87862 21.1213C4.44123 21.6839 5.20429 21.9999 5.99994 21.9999H9.99994C10.7956 21.9999 11.5587 21.6839 12.1213 21.1213C12.6839 20.5587 12.9999 19.7956 12.9999 18.9999V16.1899C13.0335 15.0191 13.4637 13.8944 14.2199 12.9999C15.5451 11.3607 16.1697 9.26477 15.9581 7.16757C15.7465 5.07038 14.7158 3.14143 13.0899 1.79995V1.81995ZM10.9999 18.9999C10.9999 19.2652 10.8946 19.5195 10.707 19.7071C10.5195 19.8946 10.2652 19.9999 9.99994 19.9999H5.99994C5.73473 19.9999 5.48037 19.8946 5.29284 19.7071C5.1053 19.5195 4.99994 19.2652 4.99994 18.9999V17.9999H10.9999V18.9999ZM12.6699 11.7599C11.6644 12.9525 11.0778 14.442 10.9999 15.9999H8.99994V12.9999C8.99994 12.7347 8.89458 12.4804 8.70705 12.2928C8.51951 12.1053 8.26516 11.9999 7.99994 11.9999C7.73473 11.9999 7.48037 12.1053 7.29284 12.2928C7.1053 12.4804 6.99994 12.7347 6.99994 12.9999V15.9999H4.99994C4.97356 14.468 4.40689 12.9947 3.39994 11.8399C2.73558 11.0439 2.28883 10.0894 2.10325 9.06929C1.91767 8.04922 1.99959 6.99846 2.34103 6.01948C2.68247 5.04049 3.27176 4.16669 4.05146 3.48327C4.83116 2.79985 5.77465 2.33015 6.78994 2.11995C7.66249 1.94029 8.5641 1.95719 9.42931 2.16942C10.2945 2.38164 11.1016 2.78387 11.792 3.3469C12.4824 3.90993 13.0387 4.61962 13.4206 5.42446C13.8025 6.22931 14.0004 7.10909 13.9999 7.99995C14.0073 9.36981 13.537 10.6994 12.6699 11.7599Z" fill="#222831"/>
</svg>
