<svg width="54" height="56" viewBox="0 0 54 56" fill="none" xmlns="http://www.w3.org/2000/svg">
<path d="M40.5 18.6667C40.5 14.9537 39.0777 11.3928 36.5459 8.76725C34.0142 6.14174 30.5804 4.66675 27 4.66675C23.4196 4.66675 19.9858 6.14174 17.4541 8.76725C14.9223 11.3928 13.5 14.9537 13.5 18.6667C13.5 35.0001 6.75 39.6667 6.75 39.6667H47.25C47.25 39.6667 40.5 35.0001 40.5 18.6667Z" stroke="black" stroke-width="5" stroke-linecap="round" stroke-linejoin="round"/>
<path d="M31.2191 46.8364C30.8235 47.5436 30.2557 48.1306 29.5726 48.5387C28.8895 48.9467 28.1149 49.1615 27.3266 49.1615C26.5382 49.1615 25.7637 48.9467 25.0806 48.5387C24.3974 48.1306 23.8297 47.5436 23.4341 46.8364" stroke="black" stroke-width="5" stroke-linecap="round" stroke-linejoin="round"/>
</svg>
