<svg width="50" height="52" viewBox="0 0 50 52" fill="none" xmlns="http://www.w3.org/2000/svg">
<path d="M37.8134 23.7036C39.152 36.0694 44.4073 39.8064 44.4073 39.8064H3C3 39.8064 9.90121 34.899 9.90121 17.7226C9.90121 13.8179 11.3554 10.0732 13.9439 7.31215C16.5323 4.55112 20.043 3 23.7036 3C24.4796 3 25.2488 3.0697 26.004 3.20586" stroke="black" stroke-width="5" stroke-linecap="round" stroke-linejoin="round"/>
<path d="M39.8065 16.8024C43.618 16.8024 46.7077 13.7126 46.7077 9.90121C46.7077 6.08979 43.618 3 39.8065 3C35.9949 3 32.9053 6.08979 32.9053 9.90121C32.9053 13.7126 35.9949 16.8024 39.8065 16.8024Z" stroke="#E02424" stroke-width="5" stroke-linecap="round" stroke-linejoin="round"/>
<path d="M27.6833 46.7075C27.2789 47.4048 26.6985 47.9836 25.9998 48.3857C25.3014 48.788 24.5096 48.9999 23.7036 48.9999C22.8975 48.9999 22.1057 48.788 21.4073 48.3857C20.7089 47.9836 20.1283 47.4048 19.7239 46.7075" stroke="black" stroke-width="5" stroke-linecap="round" stroke-linejoin="round"/>
</svg>
